<svg width="45" height="45" viewBox="0 0 45 45" fill="none" xmlns="http://www.w3.org/2000/svg">
<path d="M22.5009 12.5947H10.8335L7.47365 41.1627C7.35555 42.1529 8.07344 42.9634 9.07186 42.9634H35.9295C36.9251 42.9634 37.6457 42.1528 37.5277 41.1627L34.1679 12.5947H22.5009ZM27.5516 33.7008C26.5975 34.4039 25.8192 34.8224 23.7074 34.9566V36.4099H21.0947V34.934C19.066 34.7997 18.2876 34.3891 17.371 33.7021C16.4303 33.0137 15.9555 32.0019 15.9555 30.6616V28.8622H19.4966V30.5287C19.4966 31.1192 19.6226 31.535 19.8708 31.7712C20.0936 32.0074 22.5302 32.3964 23.6319 31.8718C23.9258 31.7311 24.0037 31.4128 24.0037 31.0506C24.0037 30.5541 23.8025 30.114 23.396 29.7302C23.0551 29.3385 22.3012 28.8606 21.1339 28.2986C20.7435 28.1149 20.381 27.9391 20.0538 27.7781C16.8588 26.274 15.9545 24.8433 15.9545 23.4828C15.9545 20.4904 19.2232 19.8652 21.0937 19.7323V18.255H23.7065V19.7323C25.7794 19.8652 26.3405 20.2569 27.2557 20.9078C28.1467 21.5293 28.6136 22.5019 28.65 23.8264V24.7482H25.2953V23.915C25.2953 23.4347 25.1772 23.0924 24.941 22.894C24.7426 22.667 22.2411 22.3587 21.3907 22.7717C21.1157 22.9073 21.0189 23.1436 21.0189 23.3931C21.0189 24.9374 29.0485 27.8574 29.0485 30.663C29.0474 31.9938 28.5472 33.0055 27.5516 33.7007L27.5516 33.7008Z" fill="white"/>
<path d="M41.4753 2.03735H3.52585C2.15054 2.03735 1.03125 3.15655 1.03125 4.53195V23.3739C1.03125 24.7479 2.15045 25.8685 3.52585 25.8685H7.85991L8.1926 23.0371H3.86126V4.86928H41.1357V23.0371H36.8057L37.1383 25.8685H41.4724C42.8477 25.8685 43.967 24.7493 43.967 23.3739L43.9667 4.53195C43.9694 3.15664 42.8505 2.03735 41.4748 2.03735H41.4753Z" fill="white"/>
<path d="M36.4282 19.8157H36.8295C37.9793 19.8157 38.9159 18.8805 38.9159 17.7304V10.1735C38.9159 9.02373 37.9806 8.08813 36.8295 8.08813H8.16838C7.01859 8.08813 6.08203 9.02338 6.08203 10.1735V17.7307C6.08203 18.8794 7.01727 19.8161 8.16838 19.8161H8.56972L8.91579 16.8923L8.91545 10.9209H36.0816V16.8879L36.4282 19.8157Z" fill="white"/>
</svg>
