<svg width="55" height="44" viewBox="0 0 55 44" fill="none" xmlns="http://www.w3.org/2000/svg">
<path d="M1.80252 0.00316183C1.30587 0.0548513 0.846668 0.287961 0.513318 0.657541C0.180488 1.0266 -0.00256884 1.50576 2.7239e-05 2.00195V31.3142C2.7239e-05 31.8441 0.212213 32.3522 0.589243 32.7269C0.966793 33.1022 1.47853 33.3126 2.01216 33.3126H35.5482C36.0869 33.3203 36.6065 33.1136 36.9903 32.7378C37.3741 32.362 37.5904 31.8493 37.5904 31.3142C37.5904 30.7787 37.3741 30.266 36.9903 29.8902C36.6065 29.5144 36.0869 29.3077 35.5482 29.3154H4.02379V11.9942H42.925V19.3222C42.9177 19.8572 43.1263 20.373 43.5044 20.7539C43.8825 21.1348 44.3988 21.3494 44.9371 21.3494C45.4759 21.3494 45.9923 21.1349 46.3704 20.7539C46.7486 20.373 46.957 19.8571 46.9498 19.3222V2.00105V2.00157C46.9498 1.47124 46.7376 0.96313 46.36 0.58835C45.983 0.21361 45.4713 0.00271359 44.9371 0.00271359H2.0113C1.94161 -0.00090453 1.8714 -0.00090453 1.80172 0.00271359L1.80252 0.00316183ZM4.02423 4.00026H42.9255V7.99735H4.02423V4.00026ZM10.7313 17.3239C7.79147 17.3239 5.3654 19.7337 5.3654 22.6535C5.3654 25.5733 7.79147 27.9831 10.7313 27.9831C11.4557 27.9831 12.1177 27.7862 12.7433 27.5251C13.3689 27.7862 14.031 27.9831 14.7554 27.9831C17.6952 27.9831 20.1212 25.5733 20.1212 22.6535C20.1212 19.7337 17.6952 17.3239 14.7554 17.3239C14.0309 17.3239 13.3689 17.5002 12.7433 17.7612C12.1177 17.5002 11.4557 17.3239 10.7313 17.3239ZM10.7313 21.321C11.0324 21.321 11.2758 21.4011 11.528 21.5919C11.878 21.855 12.305 21.9976 12.7439 21.9976C13.1828 21.9976 13.6098 21.855 13.9592 21.5919C14.2115 21.4011 14.4543 21.321 14.756 21.321C15.5204 21.321 16.0971 21.8937 16.0971 22.6535C16.0971 23.4128 15.5204 23.986 14.756 23.986C14.4548 23.986 14.212 23.8852 13.9592 23.6945V23.694C13.6098 23.4309 13.1828 23.2882 12.7439 23.2882C12.305 23.2882 11.878 23.4309 11.528 23.694C11.2758 23.8847 11.0324 23.9855 10.7313 23.9855C9.96682 23.9855 9.39012 23.4128 9.39012 22.653C9.39012 21.8937 9.96685 21.3205 10.7313 21.3205V21.321ZM46.8035 22.6535C46.2226 22.6938 45.6875 22.9822 45.3364 23.4443L39.2996 31.4385H39.3001C38.87 32.0112 38.7806 32.7685 39.0646 33.4244C39.3485 34.0809 39.9632 34.5368 40.6777 34.621C41.3917 34.7053 42.0969 34.405 42.5276 33.8328L44.938 30.6478V41.9728C44.9307 42.5078 45.1392 43.0231 45.5173 43.4045C45.8954 43.7855 46.4118 44 46.9506 44C47.4888 44 48.0052 43.7855 48.3834 43.4045C48.7614 43.0231 48.97 42.5078 48.9627 41.9728V30.6478L51.3731 33.8328C51.8037 34.405 52.5088 34.7053 53.2233 34.621C53.9374 34.5368 54.5521 34.0809 54.836 33.4244C55.1204 32.7685 55.0304 32.0112 54.6009 31.4385L48.5641 23.4443C48.1512 22.8995 47.4877 22.6018 46.8032 22.6535H46.8035Z" fill="white"/>
</svg>
