<svg width="65" height="55" viewBox="0 0 65 55" fill="none" xmlns="http://www.w3.org/2000/svg">
<path d="M46.0876 16.878C43.0514 16.878 40.191 17.6173 37.649 18.8995V7.79001C37.649 2.7299 27.9499 0 18.8245 0C9.6986 0 0 2.7299 0 7.79001C0 8.06905 0.0410695 8.33782 0.0978429 8.60235C0.0368423 8.75274 0 8.9158 0 9.08794V46.74C0 51.8001 9.69906 54.53 18.8245 54.53C25.6735 54.53 31.7096 53.1469 34.9942 50.8797C38.1094 53.1628 41.938 54.529 46.0879 54.529C56.4678 54.529 64.9124 46.0837 64.9124 35.7045C64.9124 25.3252 56.4671 16.88 46.0879 16.88L46.0876 16.878ZM18.8242 2.59662C28.8784 2.59662 35.0527 5.62184 35.0527 7.78955C35.0527 9.95773 28.8782 12.9825 18.8242 12.9825C8.76997 12.9831 2.59569 9.95789 2.59569 7.79017C2.59569 5.62199 8.77012 2.59662 18.8242 2.59662ZM2.59569 11.8821C6.0897 14.3034 12.5884 15.5796 18.8242 15.5796C25.06 15.5796 31.5588 14.3034 35.0527 11.8815V16.878C35.0527 19.0462 28.8782 22.071 18.8242 22.071C8.76997 22.071 2.59569 19.0464 2.59569 16.878V11.8821ZM2.59569 20.9699C6.0897 23.3912 12.5884 24.6674 18.8242 24.6674C24.0691 24.6674 29.4933 23.7609 33.1673 22.0335C33.0815 22.1151 32.9964 22.1972 32.9118 22.2806C32.7699 22.4195 32.6364 22.5663 32.4993 22.7094C32.2879 22.9323 32.0802 23.1581 31.8796 23.3913C31.6996 23.5991 31.5227 23.808 31.3512 24.0236C31.2304 24.1764 31.1174 24.3341 31.0021 24.4905C30.871 24.6662 30.7333 24.836 30.6083 25.0165C30.5968 25.0316 30.5793 25.0395 30.5684 25.0552C30.5467 25.0866 30.5285 25.1204 30.5068 25.1518C30.4663 25.211 30.4313 25.2738 30.3914 25.3336C30.1245 25.7371 29.8744 26.149 29.6401 26.5687C29.5628 26.7071 29.4903 26.8478 29.4166 26.9885C29.2216 27.3605 29.0398 27.738 28.8707 28.1209C28.8097 28.2592 28.7462 28.3957 28.6883 28.5359C28.6647 28.5926 28.6369 28.6482 28.614 28.7056C25.7469 29.4624 22.3786 29.861 18.8243 29.861C8.77009 29.861 2.59581 26.8358 2.59581 24.6674L2.59569 20.9699ZM2.59569 31.1588V28.7592C6.0897 31.1811 12.5884 32.4573 18.8242 32.4573C21.9847 32.4573 25.0082 32.1487 27.7219 31.5737C27.7086 31.6323 27.7007 31.6921 27.688 31.7507C27.6754 31.8086 27.6566 31.8636 27.6446 31.9216C27.6277 32.0043 27.6216 32.0907 27.6059 32.174C27.6035 32.1867 27.6023 32.2 27.5999 32.2127C27.5208 32.6318 27.4561 33.054 27.406 33.4792C27.3933 33.5855 27.3698 33.6888 27.3589 33.7957C27.3528 33.8585 27.3547 33.9213 27.3486 33.9841C27.2979 34.5537 27.2629 35.1262 27.2629 35.703C27.2629 36.0593 27.2755 36.4272 27.3009 36.8125C24.7335 37.3615 21.8278 37.6502 18.8242 37.6502C8.77003 37.6502 2.59575 34.6256 2.59575 32.4573L2.59569 31.1588ZM2.59569 36.5492C6.0897 38.9705 12.5884 40.2467 18.8242 40.2467C21.9298 40.2467 24.9284 39.9362 27.6246 39.377C27.6294 39.4023 27.6349 39.4277 27.6403 39.4531C27.6971 39.7339 27.7804 40.0045 27.8493 40.2805C27.8505 40.2847 27.8487 40.2896 27.8499 40.2938C27.8578 40.3246 27.8686 40.3548 27.8765 40.3862C27.8988 40.4732 27.92 40.5602 27.9435 40.6465C27.9961 40.8386 28.0335 41.0343 28.0927 41.2245C28.2745 41.8146 28.4841 42.3932 28.7202 42.9573C25.8532 43.7249 22.4009 44.1417 18.8242 44.1417C8.76997 44.1417 2.59569 41.1171 2.59569 38.9488L2.59569 36.5492ZM18.8242 51.9316C8.76997 51.9316 2.59569 48.9064 2.59569 46.7381V43.04C6.0897 45.4619 12.5884 46.7381 18.8242 46.7381C22.843 46.7381 26.7343 46.2314 29.927 45.3097C29.953 45.3538 29.9808 45.3961 30.0073 45.4395C30.2586 45.8527 30.5207 46.2567 30.8022 46.6481C30.9942 46.9175 31.1911 47.1838 31.3971 47.4429C31.513 47.5873 31.6296 47.7298 31.7498 47.8711C32.0651 48.245 32.3924 48.608 32.7355 48.9558C32.7566 48.977 32.7759 48.9999 32.7971 49.0205C32.8327 49.0561 32.8653 49.0954 32.9015 49.131C30.2689 50.6282 25.3168 51.9316 18.8242 51.9316ZM46.0876 51.9316C41.6503 51.9316 37.6259 50.1378 34.6932 47.2418C34.5984 47.1476 34.509 47.0486 34.4166 46.9519C34.1913 46.7182 33.9733 46.4784 33.7625 46.232C33.6157 46.0587 33.4726 45.8823 33.3325 45.7029C33.202 45.5368 33.0764 45.3665 32.9526 45.195C32.7792 44.9534 32.6071 44.7112 32.4464 44.4611C32.3957 44.382 32.3492 44.2993 32.2991 44.2196C32.0043 43.74 31.7392 43.2435 31.4946 42.7362C31.3466 42.4306 31.2089 42.1226 31.0809 41.8115C30.9746 41.55 30.8695 41.2873 30.7771 41.0203C30.7028 40.8083 30.643 40.5921 30.5778 40.3777C30.5077 40.144 30.431 39.9127 30.3712 39.6759C30.3398 39.5515 30.3036 39.4289 30.2752 39.3032C30.1828 38.901 30.1145 38.4933 30.0535 38.0838C30.033 37.9443 30.0064 37.806 29.9895 37.6653C29.9726 37.5246 29.9653 37.4001 29.9515 37.2655C29.9025 36.7479 29.859 36.2297 29.859 35.7031C29.859 35.2006 29.8892 34.7053 29.9345 34.2149C29.9472 34.0766 29.9653 33.9401 29.981 33.8024C30.0034 33.6115 30.0384 33.4237 30.0674 33.234C30.0946 33.0553 30.1163 32.8753 30.1496 32.6983C30.1749 32.563 30.1979 32.4277 30.2263 32.2937C30.3815 31.5707 30.5965 30.8713 30.8447 30.1876C31.4028 28.6451 32.2012 27.1986 33.1875 25.8964C33.2485 25.8161 33.3064 25.7327 33.3693 25.6536C33.5493 25.4247 33.7407 25.2055 33.9322 24.9868C34.0723 24.828 34.2136 24.6698 34.3604 24.5164C34.5174 24.3503 34.6787 24.1878 34.8429 24.029C35.0646 23.8158 35.2923 23.6092 35.5254 23.4087C35.6414 23.3084 35.7543 23.2058 35.8727 23.1091C38.6643 20.84 42.2186 19.4744 46.0876 19.4744C55.036 19.4744 62.3161 26.7546 62.3161 35.7029C62.3161 44.6511 55.0359 51.9316 46.0876 51.9316Z" fill="white"/>
<path d="M46.1308 28.8238C47.6486 28.8238 48.8819 30.0577 48.8819 31.5736C48.8819 32.2911 49.4623 32.8721 50.1804 32.8721C50.8979 32.8721 51.4789 32.2917 51.4789 31.5736C51.4789 29.0937 49.7727 27.0215 47.4294 26.4199V25.4802C47.4294 24.7627 46.849 24.1816 46.1308 24.1816C45.4133 24.1816 44.8323 24.7621 44.8323 25.4802V26.3801C42.4703 26.9357 40.7018 29.058 40.7018 31.6564C40.7018 34.6043 43.1008 37.0027 46.1308 37.0027C47.6486 37.0027 48.8819 38.2366 48.8819 39.8352C48.8819 41.3518 47.648 42.5851 46.0493 42.5851C44.5315 42.5851 43.2982 41.3512 43.2982 39.8352C43.2982 39.1177 42.7178 38.5367 41.9997 38.5367C41.2822 38.5367 40.7012 39.1171 40.7012 39.8352C40.7012 42.3442 42.446 44.4405 44.8317 45.0136L44.8329 45.928C44.8329 46.6455 45.4134 47.2266 46.1315 47.2266C46.849 47.2266 47.43 46.6461 47.43 45.928V45.0028C49.7499 44.4169 51.4795 42.3199 51.4795 39.7518C51.4795 36.8039 49.0805 34.4055 46.0505 34.4055C44.5327 34.4055 43.2994 33.1716 43.2994 31.573C43.2988 30.057 44.5322 28.8238 46.1308 28.8238Z" fill="white"/>
</svg>
