<svg width="43" height="55" viewBox="0 0 43 55" fill="none" xmlns="http://www.w3.org/2000/svg">
<path fill-rule="evenodd" clip-rule="evenodd" d="M42.8876 22.1106C43.7823 16.3313 39.2287 13.2247 33.0021 11.1524L35.0221 3.32397L30.0903 2.13649L28.124 9.75885C26.8275 9.44643 25.496 9.15189 24.1727 8.86004L26.1533 1.18748L21.2245 0L19.2035 7.82596C18.1306 7.58992 17.0768 7.35656 16.0545 7.11082L16.0602 7.08617L9.25921 5.44513L7.94727 10.5349C7.94727 10.5349 11.6062 11.3453 11.5291 11.3952C13.5262 11.8768 13.8873 13.1542 13.8274 14.1668L11.5265 23.0852C11.6639 23.119 11.8424 23.1678 12.0392 23.2443L11.8959 23.2097C11.7743 23.1803 11.6478 23.1496 11.5179 23.1196L8.2928 35.6131C8.04878 36.1994 7.42923 37.0793 6.03295 36.7451C6.08239 36.8144 2.44848 35.8808 2.44848 35.8808L0 41.3356L6.41788 42.8815C7.12018 43.0518 7.81429 43.2266 8.50139 43.3997L8.50284 43.4L8.50509 43.4006C8.98466 43.5214 9.46079 43.6414 9.93402 43.7582L7.8932 51.6764L12.8192 52.8639L14.8404 45.0298C16.186 45.3827 17.492 45.7084 18.7705 46.0153L16.7564 53.8125L21.6884 55L23.7289 47.0965C32.1386 48.6345 38.4621 48.0144 41.1236 40.6644C43.2683 34.7468 41.0169 31.3336 36.5926 29.1077C39.8151 28.3896 42.2423 26.3416 42.8895 22.1112L42.8876 22.1106ZM31.6196 37.378C30.2213 42.8072 21.4264 40.5626 17.4025 39.5357C17.0407 39.4432 16.7171 39.3607 16.4413 39.2946L19.1495 28.8043C19.4856 28.8855 19.8965 28.9745 20.362 29.0755C24.5243 29.978 33.0521 31.8274 31.6196 37.378ZM21.197 24.2068C24.5518 25.0719 31.8704 26.9592 33.1449 22.0247C34.4464 16.978 27.3344 15.4565 23.8608 14.7134C23.47 14.6297 23.1252 14.556 22.8438 14.4882L20.3884 24.0023C20.6202 24.0581 20.8922 24.1283 21.197 24.2068Z" fill="white"/>
</svg>
