<svg width="69" height="37" viewBox="0 0 69 37" fill="none" xmlns="http://www.w3.org/2000/svg">
<path d="M0 0V36.2106H68.8005V0H0ZM34.4012 27.158H9.05265C8.05244 27.158 7.24177 26.3473 7.24177 25.3478C7.24177 24.3476 8.05246 23.5369 9.05265 23.5369H34.4012C35.4007 23.5369 36.2113 24.3476 36.2113 25.3478C36.2113 26.3473 35.4006 27.158 34.4012 27.158ZM34.4012 16.2946H9.05265C8.05244 16.2946 7.24177 15.4839 7.24177 14.4844C7.24177 13.4842 8.05246 12.6735 9.05265 12.6735H34.4012C35.4007 12.6735 36.2113 13.4842 36.2113 14.4844C36.2113 15.4839 35.4006 16.2946 34.4012 16.2946ZM56.1272 16.2946C57.9564 16.2904 59.6774 17.1615 60.7577 18.6376C61.838 20.1144 62.1468 22.0178 61.5895 23.7601C61.0315 25.5022 59.674 26.873 57.9375 27.4478V29.3309C57.9375 30.3304 57.1268 31.1411 56.1273 31.1411C55.1271 31.1411 54.3165 30.3304 54.3165 29.3309V27.4478C53.1829 27.0695 52.196 26.3458 51.4948 25.3778C50.7929 24.4106 50.4125 23.2476 50.4055 22.0521C50.4055 21.0519 51.2162 20.2413 52.2164 20.2413C53.2166 20.2413 54.0265 21.052 54.0265 22.0521C54.0413 22.8979 54.5621 23.6525 55.3482 23.9662C56.1337 24.2799 57.0314 24.0918 57.6245 23.4882C58.2176 22.8845 58.391 21.984 58.0639 21.2042C57.7368 20.4236 56.9731 19.9155 56.1274 19.9155C54.2975 19.9197 52.5764 19.0486 51.4963 17.5725C50.4168 16.0964 50.1072 14.1922 50.6653 12.45C51.2226 10.7079 52.58 9.33709 54.3165 8.76227V6.91562C54.3165 5.9161 55.1272 5.10544 56.1274 5.10544C57.1269 5.10544 57.9376 5.91614 57.9376 6.91562V8.79874C59.0712 9.17708 60.0581 9.90073 60.7599 10.8687C61.4611 11.836 61.8416 12.9989 61.8486 14.1944C61.8486 15.1946 61.0379 16.0046 60.0377 16.0046C59.0382 16.0046 58.2275 15.1946 58.2275 14.1944C58.2275 13.3451 57.7158 12.5793 56.9311 12.2536C56.1464 11.9286 55.243 12.1083 54.6422 12.7091C54.0415 13.31 53.8617 14.2133 54.1867 14.998C54.5117 15.7827 55.2775 16.2944 56.1275 16.2944L56.1272 16.2946Z" fill="white"/>
</svg>
