<svg width="162" height="50" viewBox="0 0 162 50" fill="none" xmlns="http://www.w3.org/2000/svg">
<path fill-rule="evenodd" clip-rule="evenodd" d="M18.5661 1.08936L32.6077 11.7118L11.5526 11.725L11.5695 38.7456L1.03924 38.7522L1.01562 1.10036L18.5661 1.08936Z" fill="#86A1F9"/>
<path fill-rule="evenodd" clip-rule="evenodd" d="M25.6165 49.368L11.5695 38.7456L32.6247 38.7324L32.6077 11.7064L43.138 11.6998L43.1616 49.357L25.6165 49.368Z" fill="#86A1F9"/>
<path d="M106.035 19.6095C105.477 18.115 104.678 16.7663 103.627 15.5635C102.581 14.3608 101.315 13.4118 99.8252 12.7004C98.3404 11.9943 96.6414 11.6446 94.7497 11.6458C92.3596 11.6473 90.2164 12.2369 88.304 13.4253C86.397 14.6138 84.8814 16.2391 83.7734 18.2959C82.6601 20.3581 82.1096 22.7167 82.1113 25.3826C82.1129 28.0485 82.6825 30.4334 83.8306 32.5428C84.9734 34.6467 86.5339 36.2971 88.5174 37.4993C90.4956 38.6961 92.7092 39.2991 95.1582 39.2976C96.9535 39.2965 98.5985 38.9878 100.082 38.3771C101.567 37.7663 102.852 36.9614 103.934 35.9516C105.016 34.9472 105.808 33.8566 106.338 32.669L103.197 30.9926C102.383 32.38 101.323 33.5302 100.016 34.4484C98.7087 35.372 97.0906 35.8372 95.1614 35.8384C93.4948 35.8394 91.9351 35.4087 90.4823 34.5569C89.0295 33.7052 87.8819 32.4917 87.0503 30.9326C86.3743 29.6702 86.025 28.2295 86.0026 26.616L106.683 26.603C106.747 26.1712 106.795 25.7557 106.832 25.3401C106.864 24.9246 106.88 24.5576 106.879 24.2284C106.878 22.6526 106.599 21.1094 106.046 19.6149L106.035 19.6095ZM86.963 19.9668C87.7498 18.4391 88.837 17.2458 90.219 16.3868C91.6118 15.5333 93.1174 15.106 94.7518 15.105C96.3863 15.104 97.8549 15.5186 99.163 16.3596C100.471 17.1953 101.474 18.3333 102.177 19.7684C102.681 20.7988 102.934 21.9265 102.924 23.1516L86.0379 23.1622C86.1605 21.991 86.4653 20.9277 86.9523 19.9722L86.963 19.9668Z" fill="white"/>
<path d="M123.271 39.2745C120.785 39.2761 118.533 38.6785 116.502 37.4763C114.475 36.2742 112.861 34.6346 111.67 32.5415C110.474 30.4538 109.877 28.0743 109.876 25.4084C109.874 22.7425 110.462 20.4216 111.634 18.3485C112.812 16.2755 114.403 14.634 116.412 13.4347C118.42 12.23 120.703 11.6295 123.248 11.6279C125.794 11.6263 128.077 12.2185 130.087 13.3991C132.098 14.5797 133.685 16.2139 134.844 18.2854C136.003 20.357 136.588 22.7257 136.59 25.3916C136.592 28.0575 135.988 30.4863 134.783 32.5756C133.573 34.6648 131.967 36.3064 129.958 37.4895C127.949 38.678 125.72 39.2676 123.266 39.2691L123.271 39.2745ZM123.269 35.5725C125.032 35.5714 126.629 35.1279 128.048 34.2365C129.468 33.3452 130.598 32.1303 131.427 30.5809C132.262 29.0316 132.674 27.3044 132.673 25.3941C132.671 23.4837 132.252 21.7732 131.421 20.2627C130.584 18.7522 129.458 17.5495 128.037 16.6599C126.616 15.7704 125.019 15.3289 123.256 15.33C121.493 15.3311 119.896 15.7746 118.477 16.6659C117.057 17.5572 115.922 18.756 115.071 20.273C114.22 21.7899 113.797 23.5009 113.799 25.4059C113.8 27.3109 114.224 29.0429 115.077 30.5912C115.93 32.1395 117.067 33.353 118.488 34.2425C119.908 35.1321 121.506 35.5736 123.269 35.5725Z" fill="white"/>
<path d="M161.421 38.657L157.739 38.6593L157.725 15.902L146.064 15.9093L146.078 38.6666L142.402 38.6689L142.388 15.9116L137.141 15.9149L137.139 12.2075L139.443 12.206C140.258 12.0868 140.922 11.7302 141.442 11.1416C141.966 10.5423 142.282 9.82434 142.383 8.98241L142.379 1.54055L153.316 1.53368L153.319 5.23033L146.057 5.23489L146.062 12.1965L161.404 12.1868L161.421 38.657Z" fill="white"/>
<path d="M161.44 1.52859L157.753 1.5309L157.757 6.66304L161.444 6.66073L161.44 1.52859Z" fill="white"/>
<path d="M78.6899 21.5262L78.7006 38.7035L75.0244 38.7058L75.0145 22.9532C75.0135 21.345 74.7287 19.9745 74.1492 18.8524C73.5804 17.7356 72.7761 16.8781 71.7468 16.2635C70.7121 15.6543 69.5276 15.3529 68.1932 15.3537L61.2749 15.3581L61.2895 38.709L57.6133 38.7113L57.5963 11.6691L68.8233 11.6621C68.8608 11.662 68.9036 11.662 68.9412 11.662C70.7578 11.677 72.3926 12.1024 73.8507 12.9379C75.3357 13.795 76.5154 14.9707 77.3791 16.465C78.2428 17.9594 78.678 19.6482 78.6791 21.5262L78.6899 21.5262Z" fill="white"/>
</svg>
