<svg width="60" height="51" viewBox="0 0 60 51" fill="none" xmlns="http://www.w3.org/2000/svg">
<path d="M30.6983 28.7458H48.1257C48.4972 28.7458 48.6727 28.7458 48.6995 28.2587C48.8419 26.4859 48.8419 24.7027 48.6995 22.9277C48.6995 22.5831 48.5282 22.4406 48.1546 22.4406H13.471C13.0417 22.4406 12.9261 22.5831 12.9261 22.9855V28.0874C12.9261 28.7458 12.9261 28.7458 13.6134 28.7458H30.6983ZM46.7532 16.4781C46.8028 16.3481 46.8028 16.2056 46.7532 16.0777C46.4622 15.4441 46.1176 14.8393 45.7172 14.2718C45.1145 13.3018 44.4045 12.4081 43.5955 11.6052C43.2137 11.1202 42.772 10.6847 42.2767 10.3153C39.7959 8.20395 36.8466 6.7097 33.6764 5.95844C32.0769 5.59933 30.4423 5.42802 28.8036 5.44247H13.4111C12.9818 5.44247 12.9241 5.61377 12.9241 5.98734V16.1623C12.9241 16.5916 12.9241 16.7072 13.4689 16.7072H46.5468C46.5468 16.7072 46.8337 16.6494 46.8915 16.4781H46.7512H46.7532ZM46.7532 34.7084C46.2662 34.6547 45.775 34.6547 45.2879 34.7084H13.4999C13.0706 34.7084 12.9261 34.7084 12.9261 35.2821V45.2301C12.9261 45.6883 12.9261 45.8038 13.4999 45.8038H28.1762C28.8779 45.8575 29.5796 45.808 30.2669 45.6614C32.3968 45.5087 34.4917 45.0464 36.4895 44.2848C37.216 44.033 37.9177 43.7049 38.5802 43.3107H38.7804C42.2209 41.5213 45.0154 38.7103 46.778 35.2594C46.778 35.2594 46.9782 34.826 46.7532 34.7125V34.7084ZM7.16582 50.9615V50.7902V44.1115V41.8474V35.1108C7.16582 34.7373 7.16582 34.6816 6.70763 34.6816H0.487077C0.142408 34.6816 0 34.6816 0 34.2234V28.7768H6.64984C7.02134 28.7768 7.16582 28.7768 7.16582 28.2897V22.9009C7.16582 22.5562 7.16582 22.4716 6.70763 22.4716H0.487077C0.142408 22.4716 0 22.4716 0 22.0134V16.9693C0 16.6535 2.46035e-07 16.5689 0.458183 16.5689H6.62095C7.05024 16.5689 7.16582 16.5689 7.16582 16.024V0.573762C7.16582 0.115579 7.16582 0 7.73958 0H29.237C30.7973 0.0619166 32.3473 0.233219 33.8808 0.515972C37.0406 1.10005 40.0766 2.229 42.8525 3.84089C44.6935 4.92443 46.3879 6.23294 47.8966 7.73958C49.0318 8.91806 50.0555 10.1935 50.9636 11.5516C51.8655 12.9282 52.6147 14.3997 53.2029 15.9373C53.2751 16.3377 53.659 16.6081 54.0594 16.54H59.1902C59.8486 16.54 59.8486 16.54 59.8775 17.1715V21.8731C59.8775 22.3313 59.7062 22.4468 59.2459 22.4468H55.2895C54.8891 22.4468 54.7735 22.4468 54.8024 22.9628C54.9593 24.7089 54.9593 26.4611 54.8024 28.2071C54.8024 28.6942 54.8024 28.752 55.3493 28.752H59.8754C60.0756 29.01 59.8754 29.268 59.8754 29.528C59.9043 29.8603 59.9043 30.1967 59.8754 30.529V33.9984C59.8754 34.4855 59.733 34.63 59.3017 34.63H53.884C53.5063 34.5577 53.1389 34.7992 53.0522 35.1748C51.7623 38.5286 49.6984 41.5357 47.0319 43.9463C46.0577 44.8235 45.034 45.6491 43.9649 46.4106C42.8174 47.0711 41.7008 47.7584 40.5244 48.3032C38.3594 49.2774 36.0891 49.9956 33.759 50.4517C31.5465 50.848 29.3031 51.0275 27.0514 50.9966H7.15756V50.9677L7.16582 50.9615Z" fill="#F5AC37"/>
</svg>
