<svg width="75" height="65" viewBox="0 0 75 65" fill="none" xmlns="http://www.w3.org/2000/svg">
<path fill-rule="evenodd" clip-rule="evenodd" d="M13.7086 0.319242L0.0561285 28.9371C0.0041768 29.0436 -0.0122864 29.1638 0.00914658 29.2803C0.0305795 29.3967 0.0887842 29.5033 0.175249 29.5843L37.0474 64.8438C37.1521 64.944 37.2916 65 37.4367 65C37.5818 65 37.7213 64.944 37.8261 64.8438L74.6982 29.5865C74.7846 29.5055 74.8428 29.3989 74.8643 29.2825C74.8857 29.166 74.8692 29.0458 74.8173 28.9393L61.1648 0.321444C61.1207 0.225333 61.0499 0.143914 60.9607 0.0869196C60.8715 0.0299248 60.7678 -0.000235765 60.6618 4.26019e-05H14.216C14.1096 -0.00127858 14.0051 0.0281554 13.915 0.084794C13.825 0.141433 13.7533 0.222856 13.7086 0.319242Z" fill="url(#paint0_linear_1167_5212)"/>
<path fill-rule="evenodd" clip-rule="evenodd" d="M41.973 31.7779C41.7088 31.7975 40.3441 31.8781 37.2998 31.8781C34.8785 31.8781 33.1593 31.8062 32.5562 31.7779C23.1989 31.3706 16.2144 29.7587 16.2144 27.8288C16.2144 25.8988 23.1989 24.2891 32.5562 23.8752V30.1726C33.1681 30.2161 34.9203 30.3185 37.3416 30.3185C40.2472 30.3185 41.7022 30.1987 41.9642 30.1747V23.8796C51.3017 24.2913 58.2707 25.9032 58.2707 27.8288C58.2707 29.7543 51.3039 31.3662 41.9642 31.7757L41.973 31.7779ZM41.973 23.2283V17.5932H55.0041V9H19.525V17.5932H32.554V23.2261C21.964 23.7075 14 25.7834 14 28.2709C14 30.7585 21.964 32.8322 32.554 33.3158V51.3734H41.9708V33.3092C52.5366 32.8278 60.4873 30.7541 60.4873 28.2688C60.4873 25.7834 52.5432 23.7097 41.9708 23.2261L41.973 23.2283Z" fill="white"/>
<defs>
<linearGradient id="paint0_linear_1167_5212" x1="-1.18486" y1="31.3593" x2="71.4363" y2="31.3593" gradientUnits="userSpaceOnUse">
<stop stop-color="#D8B35D"/>
<stop offset="1" stop-color="#F5E7BF"/>
</linearGradient>
</defs>
</svg>
