<svg width="49" height="68" viewBox="0 0 49 68" fill="none" xmlns="http://www.w3.org/2000/svg">
<path d="M4.32916 30.7341L3.79835 31.5159C-2.30604 40.8975 -0.978998 53.1456 7.24865 60.9635C11.7606 65.6543 18.1304 67.9996 24.5002 67.9996C24.5002 67.9996 24.5002 67.9996 4.32916 30.7341Z" fill="white"/>
<path opacity="0.6" d="M24.4997 41.8544L4.27734 30.3503C24.4997 68 24.4997 68 24.4997 68C24.4997 59.8949 24.4997 50.4825 24.4997 41.8544Z" fill="#8EDAFE"/>
<path opacity="0.6" d="M44.671 30.7341L45.2018 31.5159C51.3062 40.8975 49.9792 53.1456 41.7515 60.9635C36.9742 65.6543 30.8698 67.9996 24.5 67.9996C24.5 67.9996 24.5 67.9996 44.671 30.7341Z" fill="#8EDAFE"/>
<path opacity="0.2" d="M24.5 41.8544L44.7224 30.3503C24.5 68 24.5 68 24.5 68C24.5 59.8949 24.5 50.4825 24.5 41.8544Z" fill="#8EDAFE"/>
<path opacity="0.2" d="M24.5 16.5195V36.1127L41.6112 26.4468L24.5 16.5195Z" fill="#8EDAFE"/>
<path opacity="0.6" d="M24.5001 16.5195L7 26.4468L24.5001 36.1127V16.5195Z" fill="#8EDAFE"/>
<path d="M24.5001 0L7 26.5085L24.5001 16.535V0Z" fill="white"/>
<path opacity="0.6" d="M24.5 16.535L41.6112 26.5085L24.5 0V16.535Z" fill="#8EDAFE"/>
</svg>
