<svg width="56" height="56" viewBox="0 0 56 56" fill="none" xmlns="http://www.w3.org/2000/svg">
<path d="M26.3133 54.5632C26.6524 54.9022 27.0878 55.0718 27.532 55.0718C27.9755 55.0718 28.4116 54.9022 28.7507 54.5632L37.7395 45.5744L37.7313 45.5663L37.7476 45.55C37.8527 45.4368 37.9734 45.2753 38.0623 45.1146C38.0623 45.1146 38.0623 45.1064 38.0704 45.1064C38.5221 44.3319 38.5628 43.396 38.1674 42.5889C37.7639 41.7656 36.9731 41.2094 36.0935 41.0962C34.7941 40.8948 33.6486 40.0877 32.9548 38.8853C32.2447 37.6509 32.1965 36.1013 32.8259 34.8508C33.5034 33.5276 34.6578 32.6723 36.0779 32.4465C37.4655 32.2288 38.8856 32.6886 39.8704 33.6652C40.4997 34.3027 40.9514 35.1823 41.0891 36.0456C41.2098 36.9652 41.7666 37.7479 42.5899 38.1513C43.3969 38.5386 44.3329 38.5142 44.7927 38.1995C44.9622 38.1432 45.2281 37.9737 45.4302 37.8204L45.4627 37.8529L54.5622 28.7509C55.2316 28.0815 55.2316 26.9836 54.5622 26.3141L46.6062 18.3582C47.7442 17.9791 48.769 17.3416 49.6398 16.4783C51.3909 14.7271 52.2135 12.2098 51.8344 9.74853C51.4471 7.24737 49.8981 5.13347 47.5984 3.93918C45.3067 2.75303 42.5072 2.8256 40.2475 4.13312C38.5371 5.14974 37.3021 6.65061 36.7054 8.44981L28.7576 0.502054C28.0882 -0.167351 26.9903 -0.167351 26.3208 0.502054L0.502054 26.3144C-0.167351 26.9838 -0.167351 28.0818 0.502054 28.7512L26.3133 54.5632ZM27.532 4.15718L35.2057 11.8309C35.9158 12.5491 36.9649 12.8075 37.9247 12.4928C38.9088 12.1781 39.6188 11.331 39.7884 10.2982C39.998 8.95874 40.7888 7.82889 41.9912 7.11075C43.2018 6.40881 44.7834 6.36815 46.0095 7.00564C47.3246 7.68319 48.2042 8.87755 48.43 10.2813C48.6396 11.6533 48.1879 13.0653 47.2113 14.0413C46.5494 14.7032 45.7104 15.1305 44.7583 15.26C43.7336 15.4214 42.8946 16.1315 42.5799 17.1156C42.2652 18.084 42.5155 19.1326 43.2418 19.8589L50.9073 27.5244L48.059 30.3892L44.1857 34.2624C43.7985 33.1244 43.161 32.0839 42.3138 31.2362C40.5547 29.4689 37.9971 28.6544 35.544 29.0416C33.0429 29.437 30.937 30.9779 29.7509 33.2857C28.5972 35.5693 28.6779 38.377 29.9686 40.6041C30.9452 42.2982 32.4616 43.5495 34.2534 44.1708L27.5236 50.9005L4.15524 27.5337L27.532 4.15718Z" fill="white"/>
</svg>
