<svg width="63" height="63" viewBox="0 0 63 63" fill="none" xmlns="http://www.w3.org/2000/svg">
<g clip-path="url(#clip0_1471_302)">
<mask id="mask0_1471_302" style="mask-type:luminance" maskUnits="userSpaceOnUse" x="0" y="10" width="63" height="43">
<path d="M0.503906 10.0898H62.4962V52.9102H0.503906V10.0898Z" fill="white"/>
</mask>
<g mask="url(#mask0_1471_302)">
<path d="M54.5536 52.8092H8.4467C4.18473 52.8092 0.503906 49.1284 0.503906 44.8664V18.132C0.503906 13.87 4.18473 10.1892 8.4467 10.1892H54.3592C58.8148 10.1892 62.4957 13.87 62.4957 18.132V44.6732C62.4957 49.1289 58.8148 52.8097 54.5529 52.8097L54.5536 52.8092ZM8.4467 16.001C7.28449 16.001 6.31553 16.9695 6.31553 18.1316V44.6729C6.31553 46.0288 7.28453 46.9973 8.4467 46.9973H54.3592C55.5214 46.9973 56.4904 46.0288 56.4904 44.8662V18.1318C56.6841 16.9695 55.7155 16.0011 54.5529 16.0011L8.4467 16.001Z" fill="white"/>
</g>
<mask id="mask1_1471_302" style="mask-type:luminance" maskUnits="userSpaceOnUse" x="49" y="22" width="14" height="7">
<path d="M49.2188 22.8867H62.4955V28.793H49.2188V22.8867Z" fill="white"/>
</mask>
<g mask="url(#mask1_1471_302)">
<path d="M59.5899 28.7881H52.2283C50.6786 28.7881 49.3223 27.4321 49.3223 25.8821C49.3223 24.3324 50.6782 22.9761 52.2283 22.9761H59.5899C61.1396 22.9761 62.4959 24.332 62.4959 25.8821C62.4954 27.4322 61.1396 28.7881 59.5899 28.7881Z" fill="white"/>
</g>
<mask id="mask2_1471_302" style="mask-type:luminance" maskUnits="userSpaceOnUse" x="0" y="22" width="34" height="7">
<path d="M0.503906 22.8867H33.8385V28.793H0.503906V22.8867Z" fill="white"/>
</mask>
<g mask="url(#mask2_1471_302)">
<path d="M30.9183 28.7881H3.4099C1.85976 28.7881 0.503906 27.6259 0.503906 25.8821C0.503906 24.1387 1.85988 22.9761 3.4099 22.9761H30.9195C32.4691 22.9761 33.8255 24.332 33.8255 25.8821C33.825 27.4322 32.4691 28.7881 30.919 28.7881H30.9183Z" fill="white"/>
</g>
<path d="M30.5313 45.0611C29.7564 45.0611 28.9816 44.6737 28.4001 44.2863L20.651 36.5372C19.4887 35.3749 19.4887 33.6312 20.651 32.469C21.8132 31.3068 23.557 31.3068 24.7191 32.469L30.1433 37.8931L43.7043 19.2958C44.6728 17.9399 46.4166 17.7462 47.7725 18.7147C49.1284 19.6832 49.3221 21.427 48.3536 22.7829L32.8558 44.0922C32.2747 44.867 31.4998 45.2544 30.7246 45.2544C30.7256 45.0611 30.5319 45.0611 30.5319 45.0611L30.5313 45.0611Z" fill="white"/>
</g>
<defs>
<clipPath id="clip0_1471_302">
<rect width="63" height="63" fill="white"/>
</clipPath>
</defs>
</svg>
