<svg width="65" height="42" viewBox="0 0 65 42" fill="none" xmlns="http://www.w3.org/2000/svg">
<path fill-rule="evenodd" clip-rule="evenodd" d="M0.634918 23.4012C-0.211639 21.8763 -0.211639 20.0244 0.634918 18.4995C6.76407 7.46582 18.537 0 32.0534 0C45.57 0 57.3425 7.46639 63.472 18.4995C64.3191 20.0244 64.3191 21.8763 63.472 23.4012C57.3428 34.4349 45.5698 41.9007 32.0534 41.9007C18.5363 41.9007 6.76293 34.4343 0.634918 23.4012ZM47.0184 20.9506C47.0184 29.2151 40.3184 35.9156 32.0534 35.9156C23.7885 35.9156 17.0884 29.2155 17.0884 20.9506C17.0884 12.6855 23.7885 5.98557 32.0534 5.98557C40.3184 5.98557 47.0184 12.6856 47.0184 20.9506Z" fill="white"/>
</svg>
