<svg width="40" height="43" viewBox="0 0 40 43" fill="none" xmlns="http://www.w3.org/2000/svg">
<path d="M20.094 0C26.8544 0 32.3004 5.73966 32.3004 12.6277C32.3004 16.2629 30.7979 19.5154 28.1689 22.0026C35.3051 25.255 40 32.5255 40 40.5607C40 43.8131 34.9298 43.8131 34.9298 40.5607C34.9298 32.1422 28.357 25.2539 20.0943 25.2539C11.8313 25.2539 5.07026 32.1416 5.07026 40.5607C5.07026 43.8131 0 43.8131 0 40.5607C0 32.525 4.6949 25.2539 11.8311 22.0026C9.20212 19.5154 7.69959 16.2629 7.69959 12.6277C7.69959 5.74004 13.3333 0 20.0941 0H20.094ZM20.094 5.16566C15.9625 5.16566 12.7701 8.41809 12.7701 12.6273C12.7701 14.7318 13.5212 16.4538 14.8357 17.793C17.6527 20.663 22.3477 20.663 25.1642 17.793C26.4787 16.4538 27.2298 14.7318 27.2298 12.6273C27.2298 8.41809 24.0374 5.16566 20.0936 5.16566H20.094Z" fill="white"/>
</svg>
